<svg id="Layer_1" data-name="Layer 1" xmlns="http://www.w3.org/2000/svg" width="400" height="400" viewBox="0 0 100 100"><defs><style>.cls-1{fill:#d8f7ff}.cls-2,.cls-4,.cls-5{fill:#fff}.cls-3{fill:none}.cls-3,.cls-4,.cls-5,.cls-6{stroke:#1291af}.cls-3,.cls-4,.cls-6{stroke-linecap:round;stroke-linejoin:round}.cls-5{stroke-miterlimit:10}.cls-6,.cls-7{fill:#6ee2fd}.cls-8{fill:#1291af}</style></defs><title>android-phone</title><circle class="cls-1" cx="50" cy="50" r="40"/><path class="cls-2" d="M31.38 38.19h22.84a1 1 0 0 1 1 1v16.7a3 3 0 0 1-3 3H33.38a3 3 0 0 1-3-3v-16.7a1 1 0 0 1 1-1zm22.37-2.76a1.14 1.14 0 0 0 .9-.44 1.13 1.13 0 0 0 .22-1 12.39 12.39 0 0 0-24.15 0A1.17 1.17 0 0 0 31 35a1.13 1.13 0 0 0 .9.44z"/><path class="cls-3" d="M31.38 38.19h22.84a1 1 0 0 1 1 1v16.7a3 3 0 0 1-3 3H33.38a3 3 0 0 1-3-3v-16.7a1 1 0 0 1 1-1zm22.37-2.76a1.14 1.14 0 0 0 .9-.44 1.13 1.13 0 0 0 .22-1 12.39 12.39 0 0 0-24.15 0A1.17 1.17 0 0 0 31 35a1.13 1.13 0 0 0 .9.44z"/><path class="cls-4" d="M33.14 58.89H40v6.28a2 2 0 0 1-2 2h-2.9a2 2 0 0 1-2-2v-6.28h.04z"/><path class="cls-4" d="M47.56 58.89h2.9a2 2 0 0 1 2 2v6.28h-6.9v-6.28a2 2 0 0 1 2-2z" transform="rotate(180 49.01 63.025)"/><path class="cls-5" d="M60.74 42.33a2.76 2.76 0 0 0 2.43-1.46l4.83-9a2.76 2.76 0 0 0-4.86-2.61l-4.83 9A2.77 2.77 0 0 0 59.43 42a2.83 2.83 0 0 0 1.31.33zM22.1 50.6a2.76 2.76 0 0 0 5.52 0v-9.66a2.76 2.76 0 0 0-5.52 0z"/><path class="cls-3" d="M46.94 25.07l4.48-4.48m-12.76 4.48l-4.49-4.48"/><circle class="cls-6" cx="38.66" cy="31.28" r="1.38"/><circle class="cls-6" cx="46.94" cy="31.28" r="1.38"/><ellipse class="cls-7" cx="60.95" cy="80.27" rx="9.2" ry="1.73"/><rect class="cls-4" x="49.7" y="37.49" width="22.08" height="37.37" rx="3.4" ry="3.4"/><path class="cls-7" d="M49.7 44.29h22.08v25.48H49.7z"/><path class="cls-2" d="M49.7 63.17l18.83-18.88H49.7v18.88z"/><path class="cls-3" d="M49.7 44.29h22.08v25.48H49.7zm6.27-3.4h4.25m3.4 0h.85"/><path class="cls-8" d="M60.74 71.46a.85.85 0 1 0 .85.85.85.85 0 0 0-.85-.85z"/></svg>