<svg id="Layer_1" data-name="Layer 1" xmlns="http://www.w3.org/2000/svg" width="400" height="400" viewBox="0 0 100 100"><defs><style>.cls-1{fill:#d8f7ff}.cls-2{fill:none;stroke:#1291af;stroke-linecap:round;stroke-linejoin:round}.cls-3{fill:#fff}.cls-4{fill:#6ee2fd}</style></defs><title>ipod</title><path class="cls-1" d="M90 53.19a40 40 0 1 0-76.44 16.5h72.88A39.92 39.92 0 0 0 90 53.19z"/><path class="cls-2" d="M11 69.69h78m-82.5 0H9m82 0h2.5"/><ellipse class="cls-1" cx="49.06" cy="85.72" rx="19.32" ry="1.73"/><rect class="cls-3" x="34.57" y="38.7" width="28.98" height="45.54" rx="2" ry="2"/><path class="cls-3" d="M58 71.13a9 9 0 1 1-9-9 9 9 0 0 1 9 9z"/><circle class="cls-4" cx="49.06" cy="71.13" r="3.45"/><rect class="cls-2" x="34.57" y="38.7" width="28.98" height="45.54" rx="2" ry="2"/><path class="cls-2" d="M58 71.13a9 9 0 1 1-9-9 9 9 0 0 1 9 9z"/><circle class="cls-2" cx="49.06" cy="71.13" r="3.45"/><rect class="cls-4" x="38.71" y="42.84" width="20.7" height="15.18" rx="1" ry="1"/><path class="cls-3" d="M38.71 56.46l13.63-13.62H39.86A1.15 1.15 0 0 0 38.71 44z"/><path class="cls-3" d="M48 47a.68.68 0 0 0-.69 0 .7.7 0 0 0-.35.6v5.84a.69.69 0 0 0 .36.6.7.7 0 0 0 .7 0l4.86-3a.69.69 0 0 0 0-1.18z"/><rect class="cls-2" x="38.71" y="42.84" width="20.7" height="15.18" rx="1" ry="1"/><path class="cls-2" d="M48 47a.68.68 0 0 0-.69 0 .7.7 0 0 0-.35.6v5.84a.69.69 0 0 0 .36.6.7.7 0 0 0 .7 0l4.86-3a.69.69 0 0 0 0-1.18z"/><g id="_Group_" data-name="&lt;Group&gt;"><path class="cls-2" d="M46.06 28.64a2.58 2.58 0 1 1-2.58-2.58 2.57 2.57 0 0 1 2.58 2.58zm12.88-2.58a2.58 2.58 0 1 1-2.58-2.57 2.58 2.58 0 0 1 2.58 2.57z"/><path class="cls-2" d="M46.06 28.64V18a1.38 1.38 0 0 1 .87-1.28l10.12-4a1.36 1.36 0 0 1 1.28.14 1.38 1.38 0 0 1 .61 1.14v12.06"/></g><g id="_Group_2" data-name="&lt;Group&gt;"><path class="cls-2" d="M24.31 47a2.16 2.16 0 1 1-2.15-2.16A2.15 2.15 0 0 1 24.31 47z"/><path class="cls-2" d="M24.31 47v-9.71l3.24 2.16"/></g><path class="cls-2" d="M73.8 47.08a1.38 1.38 0 1 1-1.38-1.38 1.38 1.38 0 0 1 1.38 1.38zm0 0v-6.21l2.07 1.38" id="_Group_3" data-name="&lt;Group&gt;"/><path class="cls-2" d="M75.18 57.09v-1.04M77.37 58l.74-.73m.17 2.92h1.04m-1.95 2.2l.74.73m-2.93.18v1.03m-2.2-1.94l-.73.73m-.18-2.93h-1.03M72.98 58l-.73-.73m-3.97-26.06v-2.76m-1.38 1.38h2.76m-39.33 1.38v-5.52m-2.76 2.76h5.52M21.46 60.88v-2.76m-1.38 1.38h2.76"/></svg>