<svg id="Layer_1" data-name="Layer 1" xmlns="http://www.w3.org/2000/svg" width="400" height="400" viewBox="0 0 100 100"><defs><style>.cls-1{fill:#d8f7ff}.cls-2{fill:#6ee2fd}.cls-3,.cls-4,.cls-6{fill:#fff}.cls-3,.cls-5,.cls-6{stroke:#1291af;stroke-linejoin:round}.cls-3,.cls-5{stroke-linecap:round}.cls-5{fill:none}.cls-7{fill:#1291af}</style></defs><title>phone-new-message</title><circle class="cls-1" cx="50" cy="50" r="40"/><path class="cls-2" d="M70.61 81.55c0 1-6.86 1.81-15.32 1.81S40 82.55 40 81.55s6.86-1.81 15.32-1.81 15.29.81 15.29 1.81z"/><rect class="cls-3" x="38.55" y="43.17" width="40.29" height="21.26" rx="3.04" ry="3.04" transform="rotate(-61.26 58.685 53.806)"/><path class="cls-2" transform="rotate(-61.25 58.699 53.808)" d="M44.63 43.17h28.13v21.26H44.63z"/><path class="cls-4" d="M44.09 58.3l29.96-12.12-17.92-9.82L44.09 58.3z"/><path class="cls-5" transform="rotate(-61.25 58.699 53.808)" d="M44.63 43.17h28.13v21.26H44.63z"/><path class="cls-5" d="M69.59 40.27l.67.37m-6.93-3.77l4.29 2.42"/><path class="cls-6" d="M22.88 25.07A2.1 2.1 0 0 1 25 23h23a2.09 2.09 0 0 1 2.09 2.09v16.2A2.08 2.08 0 0 1 48 43.36h-7.35v2.31a1.22 1.22 0 0 1-.75 1.12 1.2 1.2 0 0 1-1.31-.27l-3.17-3.16H25a2.09 2.09 0 0 1-2.09-2.09z"/><circle class="cls-4" cx="46.43" cy="22.98" r="7.25"/><circle class="cls-5" cx="46.43" cy="22.98" r="7.25"/><path class="cls-5" d="M46.43 18.76v3.62"/><path class="cls-7" d="M46.43 26.1a.21.21 0 1 1-.21.21.21.21 0 0 1 .21-.21m0-1a1.21 1.21 0 1 0 1.21 1.21 1.21 1.21 0 0 0-1.21-1.21z"/><path class="cls-5" d="M27.71 30.23h11.47m-11.47 3.62h15.7m-15.7 3.63h15.7"/><path class="cls-6" d="M51.08 68.8a.61.61 0 1 1-.61-.6.61.61 0 0 1 .61.6z"/></svg>