<svg id="Layer_1" data-name="Layer 1" xmlns="http://www.w3.org/2000/svg" width="400" height="400" viewBox="0 0 100 100"><defs><style>.cls-1{fill:#d8f7ff}.cls-2,.cls-5{fill:#fff}.cls-3{fill:none}.cls-3,.cls-5,.cls-6{stroke:#1291af;stroke-linecap:round;stroke-linejoin:round}.cls-4,.cls-6{fill:#6ee2fd}.cls-7{fill:#1291af}</style></defs><title>robot-hand</title><circle class="cls-1" cx="50" cy="50" r="40"/><path class="cls-2" d="M59.59 63.59a3.49 3.49 0 0 0-3.47-3.14h-14.6a3.49 3.49 0 0 0-3.47 3.14l-1.32 13.27a1.34 1.34 0 0 0 .87 1.38 33.37 33.37 0 0 0 22.44 0 1.34 1.34 0 0 0 .87-1.38zm1.52-26.34a2.92 2.92 0 0 0-.94-3c-2.09-1.29-24.11-2-23 5.3l1.64 11a3.49 3.49 0 0 0 3.45 3h13.19a3.49 3.49 0 0 0 3.44-2.91z"/><path class="cls-3" d="M61.11 37.25a2.92 2.92 0 0 0-.94-3c-2.09-1.29-24.11-2-23 5.3l1.64 11a3.49 3.49 0 0 0 3.45 3h13.19a3.49 3.49 0 0 0 3.44-2.91z"/><path class="cls-4" d="M62.47 87.39c0 1.2-6.5 2.18-14.52 2.18s-14.52-1-14.52-2.18 6.5-2.18 14.52-2.18 14.52.98 14.52 2.18z"/><path class="cls-5" d="M56.66 60.45A3.48 3.48 0 0 0 53.18 57h-8.71A3.48 3.48 0 0 0 41 60.45z"/><path class="cls-6" d="M55 46.43a7 7 0 0 0 3.06 5.84 3.59 3.59 0 0 0 .83-1.87l1.76-10.71A7 7 0 0 0 55 46.43zm-1.82 6.18a4.36 4.36 0 1 1-4.36-4.36 4.36 4.36 0 0 1 4.36 4.36z"/><path class="cls-5" d="M54.92 20.38h5.23v6.97h-5.23zm5.22 0h-5.22v-2.61a2.61 2.61 0 1 1 5.22 0z"/><path class="cls-5" transform="rotate(-5.61 48.626 22.228)" d="M45.96 18.76h5.23v6.97h-5.23z"/><path class="cls-5" d="M50.83 18.52l-5.2.51-.26-2.6a2.62 2.62 0 0 1 5.21-.51zM37.99 32.75l-4.55 2.56-2.08-3.8 4.55-2.56 2.08 3.8z"/><path class="cls-5" d="M35.91 29l-4.55 2.56-1.28-2.28a2.61 2.61 0 1 1 4.55-2.56z"/><path class="cls-5" transform="rotate(-14 41.651 25.238)" d="M38.07 22.21h5.23v5.86h-5.23z"/><path class="cls-5" d="M42.46 21.64L37.41 23l-.67-2.52a2.62 2.62 0 1 1 5.06-1.33zm17.68 12.59v-6.88h-5.22v6.13a16.71 16.71 0 0 1 5.22.75z"/><path class="cls-7" d="M41.85 38.67a.88.88 0 1 0 .87.87.87.87 0 0 0-.87-.87zm13.94-2.61a.87.87 0 1 0 .87.87.87.87 0 0 0-.87-.87zm-13.94 9.58a.87.87 0 1 0 .87.87.87.87 0 0 0-.87-.87z"/><path class="cls-5" d="M62.76 42.16a4.29 4.29 0 0 0-4.36 4.35 4.36 4.36 0 0 0 4.36 4.36c2.23 0 5.29-2.63 8.65-5.77l-4.28-4.28a9.93 9.93 0 0 1-4.37 1.34zm14.89-2.78a1.74 1.74 0 0 0-.48-2.94 5.21 5.21 0 0 0-5.17.76c-.26.27-.54.53-.82.78L75 41.79c.84-.79 1.74-1.64 2.65-2.41z"/><path class="cls-5" d="M71.14 38a19 19 0 0 1-4 2.84l4.28 4.28C72.56 44 73.75 42.9 75 41.79zm-18.63-4.56l-1-8-5.2.51.69 7.79a49.11 49.11 0 0 1 5.51-.3zm-6.61.45L44 27.31l-5.1 1.33 2 6.45a23.35 23.35 0 0 1 5-1.2zm-8.75 5.66c-.26-1.72.79-3 2.55-3.92L38 32.75l-4.55 2.56 4.14 7.13z"/><path class="cls-3" d="M59.59 63.59a3.49 3.49 0 0 0-3.47-3.14h-14.6a3.49 3.49 0 0 0-3.47 3.14l-1.32 13.27a1.34 1.34 0 0 0 .87 1.38 33.37 33.37 0 0 0 22.44 0 1.34 1.34 0 0 0 .87-1.38zM49.48 52.61a.66.66 0 1 1-.66-.66.65.65 0 0 1 .66.66z"/></svg>