<svg id="Layer_1" data-name="Layer 1" xmlns="http://www.w3.org/2000/svg" width="400" height="400" viewBox="0 0 100 100"><defs><style>.cls-1{fill:#d8f7ff}.cls-2{fill:#fff}.cls-3{fill:none}.cls-3,.cls-5{stroke:#1291af;stroke-linejoin:round}.cls-4,.cls-5{fill:#6ee2fd}</style></defs><title>color-palette</title><circle class="cls-1" cx="50" cy="50" r="40"/><path class="cls-2" d="M72.07 51.53H45.9V66.2a2 2 0 0 1-2 2h28.17a2 2 0 0 0 2-2V53.54a2 2 0 0 0-2-2.01z"/><path class="cls-3" d="M72.07 51.53H45.9V66.2a2 2 0 0 1-2 2h28.17a2 2 0 0 0 2-2V53.54a2 2 0 0 0-2-2.01z"/><rect class="cls-4" x="59.7" y="54.98" width="10.35" height="9.77" rx="1.15" ry="1.15"/><rect class="cls-3" x="59.7" y="54.98" width="10.35" height="9.77" rx="1.15" ry="1.15"/><path class="cls-4" d="M45.9 55v9.78h8.63a1.16 1.16 0 0 0 1.15-1.15v-7.5A1.16 1.16 0 0 0 54.53 55z"/><path class="cls-3" d="M45.9 55v9.78h8.63a1.16 1.16 0 0 0 1.15-1.15v-7.5A1.16 1.16 0 0 0 54.53 55z"/><path class="cls-2" d="M71.84 50.13a2 2 0 0 0 .73-2.74l-6.35-11a2 2 0 0 0-2.74-.73L45.9 45.89v19.27z"/><path class="cls-3" d="M71.84 50.13a2 2 0 0 0 .73-2.74l-6.35-11a2 2 0 0 0-2.74-.73L45.9 45.89v19.27z"/><rect class="cls-4" x="56.26" y="41.64" width="10.35" height="9.78" rx="1.15" ry="1.15" transform="rotate(-30.1 61.426 46.526)"/><rect class="cls-3" x="56.26" y="41.64" width="10.35" height="9.78" rx="1.15" ry="1.15" transform="rotate(-30.1 61.426 46.526)"/><path class="cls-4" d="M50 47.49l-4.1 2.39v8.84l.49.84A1.15 1.15 0 0 0 48 60l7-4a1.14 1.14 0 0 0 .42-1.57l-3.82-6.52a1.15 1.15 0 0 0-1.6-.42z"/><path class="cls-3" d="M50 47.49l-4.1 2.39v8.84l.49.84A1.15 1.15 0 0 0 48 60l7-4a1.14 1.14 0 0 0 .42-1.57l-3.82-6.52a1.15 1.15 0 0 0-1.6-.42z"/><path class="cls-2" d="M62.28 34.19a2 2 0 0 0-.73-2.74l-11-6.34a2 2 0 0 0-2.74.73l-1.91 3.35V62.5z"/><path class="cls-2" d="M45.9 62.39v.11l.77-1.34-.77 1.23z"/><path class="cls-3" d="M62.28 34.19a2 2 0 0 0-.73-2.74l-11-6.34a2 2 0 0 0-2.74.73l-1.91 3.35V62.5z"/><path class="cls-4" d="M45.9 36.08V39l6.2 3.58a1.14 1.14 0 0 0 1.57-.42l4-7a1.14 1.14 0 0 0-.42-1.57l-6.47-3.75a1.15 1.15 0 0 0-1.57.42zm0 19.53l4.61-8a1.16 1.16 0 0 0-.42-1.57l-4.19-2.38z"/><path class="cls-3" d="M45.9 55.61l4.61-8a1.16 1.16 0 0 0-.42-1.57l-4.19-2.38zm0-19.53V39l6.2 3.58a1.14 1.14 0 0 0 1.57-.42l4-7a1.14 1.14 0 0 0-.42-1.57l-6.47-3.75a1.15 1.15 0 0 0-1.57.42z"/><rect class="cls-2" x="29.23" y="23.36" width="16.67" height="44.85" rx="2" ry="2"/><rect class="cls-3" x="29.23" y="23.36" width="16.67" height="44.85" rx="2" ry="2"/><rect class="cls-4" x="32.68" y="27.38" width="9.77" height="10.35" rx="1.15" ry="1.15"/><rect class="cls-3" x="32.68" y="27.38" width="9.77" height="10.35" rx="1.15" ry="1.15"/><rect class="cls-4" x="32.68" y="41.76" width="9.77" height="10.35" rx="1.15" ry="1.15"/><rect class="cls-3" x="32.68" y="41.76" width="9.77" height="10.35" rx="1.15" ry="1.15"/><circle class="cls-5" cx="37.57" cy="62.46" r="1.73"/><ellipse class="cls-4" cx="51.65" cy="75.58" rx="23" ry="1.73"/></svg>