<svg xmlns="http://www.w3.org/2000/svg" width="105.66" height="75" viewBox="0 0 105.66 75"><defs><style>.cls-1{fill:#1291af}.cls-2,.cls-3{fill:none;stroke:#1291af;stroke-miterlimit:10;stroke-width:3px}.cls-3{fill:#37c2e3}</style></defs><title>active-nav</title><g id="Camada_2" data-name="Camada 2"><g id="Camada_1-2" data-name="Camada 1"><path class="cls-1" d="M30.21.75a.15.15 0 0 1 .15.15v1.63a.15.15 0 0 1-.15.15H2.83a.15.15 0 0 1-.15-.15V.9a.15.15 0 0 1 .15-.15h27.38m0-.75H2.83a.9.9 0 0 0-.9.9v1.63a.9.9 0 0 0 .9.9h27.38a.9.9 0 0 0 .9-.9V.9a.9.9 0 0 0-.9-.9z"/><rect class="cls-1" x="38.69" width="29.18" height="3.43" rx="1.23"/><path class="cls-1" d="M103.73.5a.4.4 0 0 1 .4.4v1.63a.4.4 0 0 1-.4.4H76.35a.4.4 0 0 1-.4-.4V.9a.4.4 0 0 1 .4-.4h27.38m0-.5H76.35a.9.9 0 0 0-.9.9v1.63a.9.9 0 0 0 .9.9h27.38a.9.9 0 0 0 .9-.9V.9a.9.9 0 0 0-.9-.9z"/><rect class="cls-2" x="1.5" y="16.52" width="28.91" height="19.29" rx="1"/><rect class="cls-3" x="2.07" y="44.47" width="102.09" height="29.04" rx="1"/><rect class="cls-2" x="38.66" y="16.37" width="65.5" height="19.44" rx="1"/></g></g></svg>