<svg xmlns="http://www.w3.org/2000/svg" width="55.98" height="58.42" viewBox="0 0 55.98 58.42"><defs><style>.cls-1{fill:#fff;fill-rule:evenodd}.cls-2{fill:#1291af}</style></defs><title>download</title><g id="Layer_2" data-name="Layer 2"><g id="Camada_1" data-name="Camada 1"><path class="cls-1" d="M41.29 5.8a28 28 0 1 1-26.6 0l1.48 2a25.56 25.56 0 1 0 23.64 0zM29.21 0v36.09l9.12-11.21 1.83 1.62L28 41.38 15.82 26.53l1.8-1.65 9.15 11.21V0z"/><path class="cls-2" d="M29.21 0h-2.44v36.09l-9.15-11.21-1.8 1.65L28 41.38 40.16 26.5l-1.83-1.62-9.12 11.21V0zm12.08 5.8l-1.48 2a25.56 25.56 0 1 1-23.64 0l-1.48-2a28 28 0 1 0 26.6 0z"/></g></g></svg>