<svg xmlns="http://www.w3.org/2000/svg" width="94.77" height="69.5" viewBox="0 0 94.77 69.5"><defs><style>.cls-1{fill:#1291af}.cls-2{fill:#37c2e3;stroke:#1291af;stroke-miterlimit:10;stroke-width:3px}</style></defs><title>tab</title><g id="Camada_2" data-name="Camada 2"><g id="Camada_1-2" data-name="Camada 1"><rect class="cls-1" x="1.38" width="25.52" height="3" rx=".9"/><path class="cls-1" d="M57.82.75a.47.47 0 0 1 .47.48v.54a.47.47 0 0 1-.47.48H34.75a.48.48 0 0 1-.48-.48v-.54a.48.48 0 0 1 .48-.48h23.07m0-.75H34.75a1.23 1.23 0 0 0-1.23 1.23v.54A1.23 1.23 0 0 0 34.75 3h23.07A1.23 1.23 0 0 0 59 1.77v-.54A1.23 1.23 0 0 0 57.82 0zm32.47.75a.15.15 0 0 1 .15.15v1.2a.15.15 0 0 1-.15.15H66.57a.15.15 0 0 1-.15-.15V.9a.15.15 0 0 1 .15-.15h23.72m0-.75H66.57a.9.9 0 0 0-.9.9v1.2a.9.9 0 0 0 .9.9h23.72a.9.9 0 0 0 .9-.9V.9a.9.9 0 0 0-.9-.9z"/><rect class="cls-2" x="1.5" y="12.89" width="91.77" height="55.11" rx="10"/></g></g></svg>