<svg xmlns="http://www.w3.org/2000/svg" width="92.78" height="65.83" viewBox="0 0 92.78 65.83"><defs><style>.cls-1{fill:#37c2e3}.cls-1,.cls-4,.cls-5{stroke:#1291af;stroke-miterlimit:10;stroke-width:3px}.cls-2{fill:#fff}.cls-3,.cls-5{fill:#1291af}.cls-4{fill:none}</style></defs><title>tolltip</title><g id="Camada_2" data-name="Camada 2"><g id="Camada_1-2" data-name="Camada 1"><rect class="cls-1" x="1.5" y="1.5" width="25.28" height="31" rx="1"/><path class="cls-2" d="M3 39.5h22.28v23.37H3z"/><path class="cls-3" d="M23.78 41v20.37H4.5V41h19.28m2-3H2.5a1 1 0 0 0-1 1v24.37a1 1 0 0 0 1 1h23.28a1 1 0 0 0 1-1V39a1 1 0 0 0-1-1z"/><rect class="cls-1" x="33.69" y="38.94" width="57.59" height="25.4" rx="1"/><rect class="cls-4" x="34" y="2.37" width="57.28" height="30.13" rx="1"/><rect class="cls-5" x="21.5" y="29.5" width="25.28" height="16.87" rx="1"/></g></g></svg>