<svg xmlns="http://www.w3.org/2000/svg" width="99.5" height="66" viewBox="0 0 99.5 66"><defs><style>.cls-1,.cls-2{fill:#37c2e3;stroke:#1291af;stroke-miterlimit:10;stroke-width:3px}.cls-2{fill:none}.cls-3{fill:#1291af}</style></defs><title>scroll-animation</title><g id="Camada_2" data-name="Camada 2"><g id="Camada_1-2" data-name="Camada 1"><rect class="cls-1" x="1.5" y="38.94" width="85.69" height="25.4" rx="1"/><rect class="cls-2" x="48.5" y="2" width="39" height="29.37" rx="1"/><rect class="cls-2" x="1.5" y="2" width="39" height="29.37" rx="1"/><path class="cls-3" d="M98 .5a1 1 0 0 1 1 1v63a1 1 0 0 1-2 0v-63a1 1 0 0 1 1-1m0-.5a1.5 1.5 0 0 0-1.5 1.5v63a1.5 1.5 0 0 0 3 0v-63A1.5 1.5 0 0 0 98 0z"/><rect class="cls-3" x="96.5" width="3" height="41" rx="1.5"/></g></g></svg>