<svg xmlns="http://www.w3.org/2000/svg" width="92" height="70.39" viewBox="0 0 92 70.39"><defs><style>.cls-1{fill:#1291af}.cls-2{fill:#37c2e3;stroke:#1291af;stroke-miterlimit:10;stroke-width:3px}</style></defs><title>tab</title><g id="Layer_2" data-name="Layer 2"><g id="Camada_1" data-name="Camada 1"><rect class="cls-1" x="1.5" width="25.52" height="3" rx=".9"/><path class="cls-1" d="M57.94.75a.48.48 0 0 1 .48.48v.54a.48.48 0 0 1-.48.48H34.87a.47.47 0 0 1-.47-.48v-.54a.47.47 0 0 1 .47-.48h23.07m0-.75H34.87a1.22 1.22 0 0 0-1.22 1.23v.54A1.22 1.22 0 0 0 34.87 3h23.07a1.23 1.23 0 0 0 1.23-1.23v-.54A1.23 1.23 0 0 0 57.94 0zm32.47.75a.15.15 0 0 1 .15.15v1.2a.15.15 0 0 1-.15.15H66.69a.15.15 0 0 1-.15-.15V.9a.15.15 0 0 1 .15-.15h23.72m0-.75H66.69a.9.9 0 0 0-.9.9v1.2a.9.9 0 0 0 .9.9h23.72a.9.9 0 0 0 .9-.9V.9a.9.9 0 0 0-.9-.9z"/><rect class="cls-2" x="1.5" y="12.89" width="89" height="56" rx="2"/></g></g></svg>